<svg width="800" height="800" version="1.1" viewBox="0 0 512 512" xmlns="http://www.w3.org/2000/svg">
<g fill="#333">
<path d="m145 431c-39 8.42-64.2 20.9-64.2 34.7 0 25.4 82.9 46 185 46 102 0 185-20.6 185-46 0-13.8-25-26.3-63.8-34.7 13.4 5.49 21.4 11.9 21.4 18.8 0 19.9-64 36.2-143 36.2-78.5 0-142-16.3-142-36.2 0-6.96 7.87-13.3 21.4-18.8h-3e-3z" stroke="#501616" stroke-width=".693"/>
<path d="m113 192s39.9-11.1 45.8-9.55c5.86 1.59 29.5-3.82 34.6-7.57 5.13-3.75 47.7-5.57 47.7-5.57l24.9 0.953 1.66 15.1s-60.6 11.5-65.9 9.28c-5.23-2.27-36.2 4.13-40.6 8.59s-67.1 16.1-67.1 16.1l-1.91-14.9z" stroke-width="5.58"/>
<path d="m89.8 36.1 24.6-31.6c2.68-3.44 8.37-4.51 12.7-2.38l39.7 19.5c4.34 2.13 5.67 6.65 2.99 10.1l-36.8-11.9-12.7 2.38-27.5 24c-4.34-2.13-5.67-6.65-2.99-10.1z" stroke-width="6.46"/>
</g>
<path d="m166 121c-2.06 4.46-10.7 5.83-14.6 3.11s-10.1-6.98-12.1-8.37c-2.02-1.4 11.5 49.3 15.5 51.6 3.95 2.28 30.1-2.32 32.8-5.68 2.61-3.35-15.1-55.6-16.3-53.1-1.18 2.55-3.16 7.93-5.22 12.4z" fill="#808080" stroke-width="6.46"/>
<g fill="#a5a5a4">
<path d="m231 345 18.2 63.9c0.631 0.465 1.26 0.928 1.91 1.36 0.821 0.55 1.65 1.07 2.49 1.56 0.419 0.244 0.84 0.481 1.26 0.709 0.422 0.228 0.845 0.446 1.27 0.657 0.424 0.21 0.85 0.411 1.28 0.602s0.851 0.374 1.28 0.546c0.426 0.172 0.852 0.334 1.28 0.486s0.851 0.293 1.28 0.423c0.424 0.13 0.847 0.25 1.27 0.358 0.422 0.108 0.843 0.205 1.26 0.29 0.419 0.0851 0.837 0.158 1.25 0.219 0.415 0.061 0.827 0.111 1.24 0.147 0.41 0.0359 0.818 0.0586 1.22 0.0686 0.405 0.0101 0.807 8e-3 1.2-0.01 0.398-0.0168 0.793-0.0476 1.18-0.0923 0.391-0.0446 0.778-0.103 1.16-0.176 0.383-0.0734 0.761-0.162 1.13-0.265s0.743-0.221 1.11-0.355c0.364-0.134 0.723-0.282 1.08-0.447 0.353-0.165 0.7-0.347 1.04-0.544 0.341-0.198 0.677-0.411 1.01-0.642 0.329-0.231 0.651-0.479 0.967-0.744 0.494-0.415 1.02-0.901 1.54-1.39l-20.7-60.7c-0.315 0.403-0.63 0.806-0.955 1.18-0.434 0.496-0.877 0.965-1.33 1.4-0.452 0.437-0.912 0.843-1.38 1.22-0.469 0.375-0.946 0.718-1.43 1.03-0.486 0.31-0.981 0.586-1.48 0.828-0.503 0.242-1.02 0.448-1.54 0.619-1.71-0.875-3.37-1.78-4.98-2.71-1.61-0.928-3.18-1.88-4.7-2.85-1.52-0.967-2.99-1.95-4.41-2.94-1.42-0.992-2.79-1.99-4.11-3-0.314-0.238-0.598-0.475-0.906-0.713z" stroke-width="6.19"/>
<path transform="scale(.64)" d="m391 731c-1.14-0.0107-2.27-0.0347-3.38-0.104-0.275-0.0171-0.539-0.0556-0.812-0.0762l4.81 2.36-0.613-2.18z" stroke-width="10.1"/>
<path d="m205 322s-0.852 1.38-2.21 3.89c-0.678 1.26-1.48 2.8-2.37 4.6-0.886 1.8-1.86 3.85-2.86 6.13-0.504 1.14-1.02 2.34-1.53 3.59-0.518 1.25-1.04 2.55-1.56 3.9-0.521 1.35-1.04 2.75-1.55 4.2-0.35 0.987-0.691 2.02-1.03 3.05l22.2 101 7.51 3.92c-0.116-0.136-0.238-0.263-0.353-0.401-0.478-0.574-0.946-1.17-1.4-1.78-0.455-0.61-0.897-1.24-1.33-1.88-0.432-0.646-0.852-1.31-1.26-1.99-0.408-0.68-0.805-1.38-1.19-2.09-0.385-0.714-0.758-1.44-1.12-2.19-0.362-0.746-0.713-1.51-1.05-2.29-0.339-0.778-0.667-1.57-0.983-2.38s-0.621-1.63-0.915-2.47c-0.294-0.837-0.575-1.69-0.846-2.55-0.271-0.866-0.53-1.74-0.779-2.64s-0.485-1.8-0.711-2.72c-0.226-0.919-0.44-1.85-0.644-2.79-0.203-0.944-0.395-1.9-0.576-2.87s-0.351-1.95-0.51-2.94c-0.159-0.99-0.307-1.99-0.444-3-0.137-1.01-0.264-2.04-0.378-3.07-0.115-1.03-0.218-2.08-0.311-3.13-0.093-1.05-0.176-2.11-0.247-3.19-0.0712-1.07-0.131-2.15-0.181-3.24-0.099-1.03-0.173-2.06-0.224-3.06-0.0509-1.01-0.0788-2-0.0846-2.98-6e-3 -0.979 0.0104-1.94 0.0469-2.9 0.0364-0.951 0.0934-1.89 0.169-2.81 0.0758-0.923 0.17-1.83 0.282-2.73 0.112-0.894 0.242-1.77 0.388-2.64 0.146-0.865 0.308-1.72 0.485-2.55 0.176-0.836 0.366-1.66 0.571-2.46 0.204-0.806 0.422-1.6 0.651-2.37 0.229-0.776 0.469-1.54 0.72-2.28 0.251-0.746 0.512-1.48 0.782-2.19 0.27-0.716 0.549-1.42 0.835-2.1 0.286-0.685 0.58-1.35 0.879-2.01 0.299-0.654 0.605-1.29 0.915-1.91 0.31-0.622 0.624-1.23 0.941-1.82s0.637-1.17 0.958-1.72c0.322-0.558 0.645-1.1 0.968-1.63 0.323-0.526 0.646-1.03 0.968-1.53 0.448-0.685 0.886-1.3 1.32-1.92l-9.82-37.1c-0.122-0.159-0.313-0.385-0.428-0.536-0.88-1.16-1.55-2.09-1.99-2.73-0.446-0.639-0.672-0.988-0.672-0.988z" stroke-width="6.08"/>
<path d="m242 298-32.1-93.8c-1.92-5.6-50.9 4.67-49.6 9.84l18.5 77.4c1.12-1.47 2.25-2.96 3.36-4.29 1.51-1.82 2.99-3.51 4.43-5.08 1.44-1.56 2.83-3 4.14-4.3 1.32-1.31 2.56-2.48 3.71-3.53 0.517-0.471 0.935-0.819 1.41-1.24l-13-45c-0.458-1.5 0.318-3.69 1.29-4.91 0.976-1.22 2.55-2.15 4.5-2.5 3.9-0.708 7.79 1.15 8.71 4.16l15 52.5c1.09 0.944 2.13 1.86 3.34 2.86 1.98 1.65 4.09 3.36 6.29 5.05 2.2 1.7 4.48 3.39 6.79 5 1.15 0.804 2.31 1.59 3.48 2.34s2.32 1.48 3.48 2.17c1.15 0.687 2.3 1.34 3.44 1.94 0.955 0.507 1.89 0.96 2.82 1.4z" stroke-width="6.36"/>
</g>
<path d="m136 104s3.18-9.54 4.77-11.9c1.6-2.38 11.9-4.72 14.8-2.88 2.86 1.84 12.9 7.88 12.9 7.88-1.21-6.29-19.1-59.1-19.1-59.1l-13.7-6.73-10.8 2.09-7.62 11.8s20.1 64.2 18.8 58.8z" fill="#808080"/>
<path d="m222 466s-68.6-6.57-68.6-93.7c0-67.4 49-102 49-102s22.9 23 40.4 31.2c11.4-24.4 2-33.1 11.7-62.1 4.69-14 53.5-39.6 53.5-39.6s8.27 46.7 14 61.8c7.48 19.7 41.8 61 46 106 4.45 48.3-67.3 99.4-67.3 99.4s31.7-39.4 31.7-85.5c0-28.8-17.7-67.3-32.2-94.4-10-18.6-15-42-15-42s-11.4 8.2-10.9 27.3c0.757 32.1-7.27 77.2-24.4 83-28.1-14.8-44-37.8-44-37.8s-59.6 90.6 16 148z" stroke-width="17"/>
<path d="m251 469c34.6-1.79 64.1-25.1 64.1-57.4s-9.01-33.2-9.01-33.2-17.4 26.6-27.7 35.6-28.1-0.875-38.4-13.4c-10.4-10.8-11.4-48.2-11.4-48.2s-24.2 19.7-20.8 53.8c1.73 35.9 15.6 62.8 43.3 62.8z" stroke-width="17.6"/>
</svg>
