<svg
   xmlns="http://www.w3.org/2000/svg"
   viewBox="0 0 16 16"
   height="16"
   width="16"
   id="homeIcon">
  <defs
     id="defs66" />
  <path stroke-width='0.167'
     d="M 2.4090061,14.6022 C 2.3027941,14.474221 2.2068775,13.443383 2.1796172,12.136901 L 2.1327675,9.8915472 1.3013166,9.8390692 C 0.40202224,9.7823167 0.04353057,9.5885974 0.04353057,9.1594084 c 0,-0.2892848 7.65605743,-8.0426546 7.94171093,-8.0426546 0.091926,0 1.9700139,1.8040507 4.1735295,4.0090016 3.804209,3.8066875 3.991739,4.0236533 3.716067,4.2993258 -0.168651,0.1686519 -0.657451,0.3272336 -1.166335,0.3783945 l -0.876012,0.088071 -0.08356,2.2563753 c -0.04596,1.241006 -0.144416,2.350391 -0.218786,2.465299 -0.09227,0.142559 -0.630776,0.208924 -1.695293,0.208924 -1.268398,0 -1.57904,-0.04943 -1.661525,-0.264378 -0.05581,-0.145408 -0.10146,-1.24351 -0.10146,-2.440227 V 9.9416887 L 9.5134454,9.3832689 C 8.5692267,8.4390498 7.3429022,8.4041933 6.4872951,9.297255 5.9052269,9.904803 5.7429231,10.707568 5.7335329,13.025403 l -0.00729,1.796743 H 4.1588994 c -1.0918726,0 -1.6227305,-0.06673 -1.7498933,-0.219946 z" />
</svg>
